<svg xmlns="http://www.w3.org/2000/svg" viewBox="0 0 800 500" preserveAspectRatio="xMidYMid slice">
  <defs>
    <linearGradient id="fade" x1="0%" y1="0%" x2="100%" y2="0%">
      <stop offset="0%" style="stop-color:#000000;stop-opacity:0" />
      <stop offset="50%" style="stop-color:#000000;stop-opacity:0.3" />
      <stop offset="100%" style="stop-color:#000000;stop-opacity:0" />
    </linearGradient>
  </defs>
  
  <rect width="100%" height="100%" fill="#f4f4f4" />

  <g fill="none" stroke="#444" stroke-width="0.5" opacity="0.4">
    <path d="M0,200 C150,250 250,100 400,150 S650,400 800,300" />
    <path d="M0,210 C150,260 250,110 400,160 S650,410 800,310" />
    <path d="M0,220 C150,270 250,120 400,170 S650,420 800,320" />
    <path d="M0,230 C150,280 250,130 400,180 S650,430 800,330" />
    <path d="M0,240 C150,290 250,140 400,190 S650,440 800,340" />
    <path d="M0,250 C150,300 250,150 400,200 S650,450 800,350" />
    <path d="M0,260 C150,310 250,160 400,210 S650,460 800,360" />
  </g>

  <g fill="none" stroke="#666" stroke-width="0.5" opacity="0.3">
    <path d="M0,100 C200,100 300,400 500,300 S700,100 800,200" />
    <path d="M0,110 C200,110 300,410 500,310 S700,110 800,210" />
    <path d="M0,120 C200,120 300,420 500,320 S700,120 800,220" />
    <path d="M0,130 C200,130 300,430 500,330 S700,130 800,230" />
    <path d="M0,140 C200,140 300,440 500,340 S700,140 800,240" />
  </g>

  <g fill="none" stroke="#222" stroke-width="0.7" opacity="0.5">
    <path d="M0,400 C100,300 300,500 500,400 S700,200 800,250" />
    <path d="M0,415 C100,315 300,515 500,415 S700,215 800,265" />
    <path d="M0,430 C100,330 300,530 500,430 S700,230 800,280" />
    <path d="M0,445 C100,345 300,545 500,445 S700,245 800,295" />
  </g>

  <g fill="#333" opacity="0.6">
    <circle cx="50" cy="80" r="2" opacity="0.5" />
    <circle cx="120" cy="150" r="3" opacity="0.8" />
    <circle cx="200" cy="50" r="1.5" opacity="0.4" />
    <circle cx="350" cy="220" r="2.5" opacity="0.6" />
    <circle cx="500" cy="100" r="1" opacity="0.3" />
    <circle cx="650" cy="300" r="4" opacity="0.7" />
    <circle cx="750" cy="50" r="2" opacity="0.5" />
    <circle cx="80" cy="350" r="1.5" opacity="0.4" />
    <circle cx="250" cy="400" r="3" opacity="0.6" />
    <circle cx="450" cy="350" r="2" opacity="0.5" />
    <circle cx="600" cy="450" r="1.5" opacity="0.4" />
    <circle cx="700" cy="150" r="2.5" opacity="0.7" />
    <circle cx="300" cy="280" r="1" opacity="0.3" />
    <circle cx="150" cy="450" r="2" opacity="0.6" />
  </g>
</svg>